<svg xmlns="http://www.w3.org/2000/svg" width="18" height="18" viewBox="0 0 18 18">
    <g fill="none" fill-rule="evenodd">
        <path d="M-4-4h26v26H-4z"/>
        <path fill="#000" fill-rule="nonzero" d="M17.6.413a1.36 1.36 0 0 0-1.924 0L9 7.075 2.324.4A1.36 1.36 0 0 0 .4.4a1.36 1.36 0 0 0 0 1.925L7.075 9 .4 15.676a1.36 1.36 0 0 0 0 1.925 1.36 1.36 0 0 0 1.925 0L9 10.925l6.676 6.676a1.36 1.36 0 0 0 1.925 0 1.36 1.36 0 0 0 0-1.925L10.925 9 17.6 2.324a1.368 1.368 0 0 0 0-1.911z"/>
    </g>
</svg>
